<svg
  fill="#000000"
  height="800px"
  width="800px"
  version="1.1"
  id="Layer_1"
  xmlns="http://www.w3.org/2000/svg"
  viewBox="-50 -50 612.004 612.004"
>
  <g>
    <g>
      <g>
        <path d="M264.791,341.338h-0.094c-4.71,0-8.482,3.823-8.482,8.533s3.857,8.533,8.576,8.533c4.702,0,8.533-3.823,8.533-8.533     S269.493,341.338,264.791,341.338z" />
        <path d="M264.791,290.138h-0.094c-4.71,0-8.482,3.823-8.482,8.533s3.857,8.533,8.576,8.533c4.702,0,8.533-3.823,8.533-8.533     S269.493,290.138,264.791,290.138z" />
        <path d="M128.002,204.804c-4.719,0-8.533,3.823-8.533,8.533v179.2H59.727c-4.71,0-8.533,3.823-8.533,8.533     c0,4.71,3.823,8.533,8.533,8.533h102.4c4.719,0,8.542-3.823,8.542-8.533c0-4.71-3.823-8.533-8.542-8.533h-25.6v-179.2     C136.527,208.627,132.713,204.804,128.002,204.804z" />
        <path d="M264.791,238.938h-0.094c-4.71,0-8.482,3.823-8.482,8.533s3.857,8.533,8.576,8.533c4.702,0,8.533-3.823,8.533-8.533     S269.493,238.938,264.791,238.938z" />
        <path d="M264.791,187.738h-0.094c-4.71,0-8.482,3.823-8.482,8.533c0,4.71,3.857,8.533,8.576,8.533     c4.702,0,8.533-3.823,8.533-8.533C273.325,191.561,269.493,187.738,264.791,187.738z" />
        <path d="M454.334,51.46l-65.971-16.495L355.893,2.505c-3.106-3.106-8.055-3.354-11.426-0.572l-88.465,72.38l-88.474-72.38     c-3.388-2.782-8.328-2.534-11.435,0.572l-32.461,32.461L57.167,51.597c-23.612,7.441-40.098,28.331-40.098,50.807v315.733     c0,9.182,0,20.599,11.025,31.633l51.2,51.2c11.034,11.034,22.46,11.034,31.633,11.034h51.2c4.719,0,8.542-3.823,8.542-8.533     c0-4.71-3.823-8.533-8.542-8.533h-51.2c-7.851,0-13.534,0-19.558-6.033l-51.2-51.2c-6.042-6.033-6.042-11.716-6.042-19.567     V102.404c0-15.104,11.588-29.303,27.674-34.389l68.267-17.067c1.493-0.375,2.876-1.152,3.968-2.244l28.672-28.672l80.589,65.937     l-21.82,21.82l-62.259-54.477c-3.541-3.098-8.926-2.739-12.049,0.802c-3.098,3.55-2.739,8.943,0.811,12.041l68.267,59.733     c3.379,2.97,8.482,2.799,11.648-0.384l2.509-2.5v269.534h-34.133c-4.719,0-8.542,3.823-8.542,8.533v102.4     c0,4.71,3.823,8.533,8.542,8.533h204.8c9.173,0,20.599,0,31.625-11.034l51.2-51.2c11.042-11.034,11.042-22.451,11.042-31.633     V102.404C494.935,79.561,474.694,58.688,454.334,51.46z" />
      </g>
    </g>
  </g>
</svg>
