<svg width="14" height="14" viewBox="0 0 14 14" fill="none" xmlns="http://www.w3.org/2000/svg">
<g id="More">
<path id="Vector" d="M6.125 2.61133C6.125 2.84339 6.21719 3.06595 6.38128 3.23005C6.54538 3.39414 6.76794 3.48633 7 3.48633C7.23206 3.48633 7.45462 3.39414 7.61872 3.23005C7.78281 3.06595 7.875 2.84339 7.875 2.61133C7.875 2.37926 7.78281 2.1567 7.61872 1.99261C7.45462 1.82852 7.23206 1.73633 7 1.73633C6.76794 1.73633 6.54538 1.82852 6.38128 1.99261C6.21719 2.1567 6.125 2.37926 6.125 2.61133ZM6.125 6.98633C6.125 7.21839 6.21719 7.44095 6.38128 7.60505C6.54538 7.76914 6.76794 7.86133 7 7.86133C7.23206 7.86133 7.45462 7.76914 7.61872 7.60505C7.78281 7.44095 7.875 7.21839 7.875 6.98633C7.875 6.75426 7.78281 6.5317 7.61872 6.36761C7.45462 6.20352 7.23206 6.11133 7 6.11133C6.76794 6.11133 6.54538 6.20352 6.38128 6.36761C6.21719 6.5317 6.125 6.75426 6.125 6.98633ZM6.125 11.3613C6.125 11.5934 6.21719 11.816 6.38128 11.98C6.54538 12.1441 6.76794 12.2363 7 12.2363C7.23206 12.2363 7.45462 12.1441 7.61872 11.98C7.78281 11.816 7.875 11.5934 7.875 11.3613C7.875 11.1293 7.78281 10.9067 7.61872 10.7426C7.45462 10.5785 7.23206 10.4863 7 10.4863C6.76794 10.4863 6.54538 10.5785 6.38128 10.7426C6.21719 10.9067 6.125 11.1293 6.125 11.3613Z" fill="#595959"/>
</g>
</svg>
